# AST/ASF file generated using VICON BodyLanguage
# -----------------------------------------------
:version 1.10
:name VICON
:units
  mass 1.0
  length 0.45
  angle deg
:documentation
   .ast/.asf automatically generated from VICON data using
   VICON BodyBuilder and BodyLanguage model FoxedUp or BRILLIANT.MOD
:root
   order TX TY TZ RX RY RZ
   axis XYZ
   position 0 0 0  
   orientation 0 0 0 
:bonedata
  begin
     id 1 
     name lhipjoint
     direction 0.567149 -0.783011 0.255413 
     length 2.28399 
     axis 0 0 0  XYZ
  end
  begin
     id 2 
     name lfemur
     direction 0.34202 -0.939693 0  
     length 7.34031  
     axis 0 0 20  XYZ
    dof rx ry rz
    limits (-160.0 20.0)
           (-70.0 70.0)
           (-60.0 70.0)
  end
  begin
     id 3 
     name ltibia
     direction 0.34202 -0.939693 0   
     length 6.9833   
     axis 0 0 20   XYZ
    dof rx
    limits (-10.0 170.0)
  end
  begin
     id 4 
     name lfoot
     direction 0.136498 -0.375025 0.91691   
     length 2.33665   
     axis -90 7.62852e-016 20   XYZ
    dof rx rz
    limits (-45.0 90.0)
           (-70.0 20.0)
  end
  begin
     id 5 
     name ltoes
     direction 1.5367e-011 -4.21617e-011 1   
     length 1.15039   
     axis -90 7.62852e-016 20   XYZ
    dof rx
    limits (-90.0 20.0)
  end
  begin
     id 6 
     name rhipjoint
     direction -0.602854 -0.758518 0.247423   
     length 2.35775  
     axis 0 0 0  XYZ 
  end
  begin
     id 7 
     name rfemur
     direction -0.34202 -0.939693 0   
     length 7.43932   
     axis 0 0 -20   XYZ
    dof rx ry rz
    limits (-160.0 20.0)
           (-70.0 70.0)
           (-70.0 60.0)
  end
  begin
     id 8 
     name rtibia
     direction -0.34202 -0.939693 0   
     length 7.11893   
     axis 0 0 -20   XYZ
    dof rx
    limits (-10.0 170.0)
 end
 begin
     id 9 
     name rfoot
     direction -0.131771 -0.362037 0.922803   
     length 2.53019  
     axis -90 -7.62852e-016 -20   XYZ
    dof rx rz
    limits (-45.0 90.0)
           (-20.0 70.0)
  end
  begin
     id 10 
     name rtoes
     direction -1.53733e-011 -4.21932e-011 1   
     length 1.24596   
     axis -90 -7.62852e-016 -20   XYZ
    dof rx
    limits (-90.0 20.0)
  end
  begin
     id 11 
     name lowerback
     direction 0.0235427 0.999023 -0.0374125   
     length 2.21768   
     axis 0 0 0   XYZ
    dof rx ry rz
    limits (-20.0 45.0)
           (-30.0 30.0)
           (-30.0 30.0)
  end
  begin
     id 12 
     name upperback
     direction 0.0302156 0.996818 -0.073759   
     length 2.20352   
     axis 0 0 0   XYZ
    dof rx ry rz
    limits (-20.0 45.0)
           (-30.0 30.0)
           (-30.0 30.0)
  end
  begin
     id 13 
     name thorax
     direction 0.0187169 0.998235 -0.0563532   
     length 2.22103   
     axis 0 0 0   XYZ
    dof rx ry rz
    limits (-20.0 45.0)
           (-30.0 30.0)
           (-30.0 30.0)
  end
  begin
     id 14 
     name lowerneck
     direction -0.119528 0.987423 0.103481   
     length 1.72948   
     axis 0 0 0   XYZ
    dof rx ry rz
    limits (-20.0 45.0)
           (-30.0 30.0)
           (-30.0 30.0)
  end
  begin
     id 15 
     name upperneck
     direction 0.248049 0.963095 -0.104496   
     length 1.74979   
     axis 0 0 0   XYZ
    dof rx ry rz
    limits (-20.0 45.0)
           (-30.0 30.0)
           (-30.0 30.0)
  end
  begin
     id 16
     name head
     direction 0.0903589 0.994284 -0.056876  
     length 1.78268  
     axis 0 0 0   XYZ
    dof rx ry rz
    limits (-20.0 45.0)
           (-30.0 30.0)
           (-30.0 30.0)
  end
  begin
     id 17 
     name lclavicle
     direction 0.946008 0.242039 -0.215608  
     length 3.80783  
     axis 0 0 0   XYZ
    dof ry rz
    limits (-20.0 10.0)
           (0.0 20.0)
  end
  begin
     id 18 
     name lhumerus
     direction 1 -4.48991e-011 -2.25695e-027   
     length 4.83125   
     axis 180 -30 -90   XYZ
    dof rx ry rz
    limits (-60.0 90.0)
           (-90.0 90.0)
           (-90.0 90.0)
  end
  begin
     id 19
     name lradius
     direction 0.999991 0.00366712 -0.00211721   
     length 3.00391   
     axis 180 -30 -90   XYZ
    dof rx
    limits (-10.0 170.0)
  end
  begin
     id 20
     name lwrist
     direction 0.999991 0.00393016 -0.00141978   
     length 1.50195   
     axis -1.00488e-014 90 90   XYZ
    dof ry
    limits (-180.0 0.0)
 end
  begin
     id 21 
     name lhand
     direction 1 -4.49123e-011 2.72098e-026   
     length 1.2717   
     axis -1.73687e-014 90 90   XYZ
    dof rx rz
    limits (-90.0 90.0)
           (-45.0 45.0)
  end
  begin
     id 22 
     name lfingers
     direction 1 -4.48678e-011 5.4479e-026   
     length 1.02528   
     axis -3.47372e-014 90 90   XYZ
    dof rx
    limits (0.0 90.0)
  end
  begin
     id 23
     name lthumb
     direction 0.707107 -6.34851e-011 0.707107   
     length 1.4721   
     axis -90 45 -1.62303e-014   XYZ
    dof rx rz
    limits (-45.0 45.0)
           (-45.0 45.0)
  end
  begin
     id 24 
     name rclavicle
     direction -0.981723 0.189447 -0.0181673   
     length 3.74989  
     axis 0 0 0   XYZ 
    dof ry rz
    limits (-10.0 20.0)
           (-20.0 0.0)
  end
  begin
     id 25 
     name rhumerus
     direction -1 -4.48985e-011 2.38206e-027  
     length 4.61118   
     axis 180 30 90   XYZ
    dof rx ry rz
    limits (-90.0 60.0)
           (-90.0 90.0)
           (-90.0 90.0)
  end
  begin
     id 26 
     name rradius
     direction -1 -4.48977e-011 7.41019e-027   
     length 2.91491   
     axis 180 30 90   XYZ
    dof rx
    limits (-10.0 170.0)
  end
  begin
     id 27 
     name rwrist
     direction -1 -4.48549e-011 1.3624e-026   
     length 1.45745   
     axis -1.00488e-014 -90 -90   XYZ
    dof ry
    limits (-180.0 0.0)
  end
  begin
     id 28
     name rhand
     direction -1 -4.49107e-011 2.72109e-026   
     length 1.30769   
     axis -1.73687e-014 -90 -90   XYZ
    dof rx rz
    limits (-90.0 90.0)
           (-45.0 45.0)
  end
  begin
     id 29
     name rfingers
     direction -1 -4.48919e-011 5.44468e-026   
     length 1.05429   
     axis -3.47372e-014 -90 -90   XYZ
    dof rx
    limits (0.0 90.0)
  end
  begin
     id 30
     name rthumb
     direction -0.707107 -6.35315e-011 0.707107   
     length 1.51376   
     axis -90 -45 1.62303e-014   XYZ
    dof rx rz
    limits (-45.0 45.0)
           (-45.0 45.0)
  end
:hierarchy
  begin
    root lhipjoint rhipjoint lowerback
    lhipjoint lfemur
    lfemur ltibia
    ltibia lfoot
    lfoot ltoes
    rhipjoint rfemur
    rfemur rtibia
    rtibia rfoot
    rfoot rtoes
    lowerback upperback
    upperback thorax
    thorax lowerneck lclavicle rclavicle
    lowerneck upperneck
    upperneck head
    lclavicle lhumerus
    lhumerus lradius
    lradius lwrist
    lwrist lhand lthumb
    lhand lfingers
    rclavicle rhumerus
    rhumerus rradius
    rradius rwrist
    rwrist rhand rthumb
    rhand rfingers
  end

#!OML:ASF X:\für Bonn\!DataBase\2005_08_11_Bastian_Final\c3d\Bastian.ASF
:FULLY-SPECIFIED
:DEGREES
17
root -0.129359 17.2428 6.2887 171.229 -8.6467 -178.254
lowerback 3.33074 -3.17071 -3.07696
upperback 5.11758 -4.57587 -0.207011
thorax 3.63453 -2.52721 1.48992
lowerneck -7.7389 -6.01492 -3.24011
upperneck -1.27741 -7.61382 9.14168
head 1.47638 -3.49419 3.2318
rclavicle 4.57205e-015 -7.55382e-015
rhumerus 72.3312 23.44 1.39948
rradius 39.2317
rwrist -57.1895
rhand -43.9847 -6.56049
rfingers 7.12502
rthumb -16.8065 -35.8531
lclavicle 4.57205e-015 -7.55382e-015
lhumerus 76.1716 -22.3453 -29.8236
lradius 30.0327
lwrist 25.6436
lhand -40.5866 13.494
lfingers 7.12502
lthumb -13.5332 43.0342
rfemur -3.13866 5.26026 28.0911
rtibia 39.2138
rfoot -23.62 -22.6814
rtoes 5.44189
lfemur -2.06684 2.12444 -17.3629
ltibia 32.1965
lfoot -13.62 -10.6652
ltoes -10.9297
18
root -0.123784 17.2426 6.29451 171.238 -8.63048 -178.278
lowerback 3.44404 -3.1566 -3.0919
upperback 5.13836 -4.5654 -0.221046
thorax 3.59202 -2.52421 1.49059
lowerneck -7.74233 -6.04739 -3.25233
upperneck -1.37696 -7.6445 9.20372
head 1.45044 -3.50746 3.25446
rclavicle 3.72224e-014 -1.15295e-014
rhumerus 72.2397 23.1986 0.87389
rradius 39.3666
rwrist -56.9997
rhand -43.8451 -6.4696
rfingers 7.12502
rthumb -16.6721 -35.7736
lclavicle 3.72224e-014 -1.15295e-014
lhumerus 75.574 -22.1601 -27.6853
lradius 29.8366
lwrist 23.6978
lhand -40.7621 13.0754
lfingers 7.12502
lthumb -13.7024 42.6043
rfemur -3.24355 4.68865 27.9123
rtibia 39.2453
rfoot -23.4249 -22.2021
rtoes 5.12573
lfemur -2.12109 1.97533 -17.4187
ltibia 32.2325
lfoot -13.6623 -10.4648
ltoes -11.2969
19
root -0.11808 17.2417 6.30199 171.233 -8.6004 -178.301
lowerback 3.60738 -3.1411 -3.10509
upperback 5.14772 -4.55504 -0.229212
thorax 3.50991 -2.52077 1.50024
lowerneck -7.69634 -6.07568 -3.30708
upperneck -1.49814 -7.66647 9.26985
head 1.41043 -3.51865 3.28827
rclavicle -3.99557e-014 3.97569e-016
rhumerus 72.132 23.0003 0.240444
rradius 39.4678
rwrist -56.717
rhand -43.7292 -6.37
rfingers 7.12502
rthumb -16.5605 -35.6834
lclavicle -3.99557e-014 3.97569e-016
lhumerus 74.9718 -22.0146 -25.6033
lradius 29.6611
lwrist 21.7447
lhand -40.9747 12.7606
lfingers 7.12502
lthumb -13.9073 42.2755
rfemur -3.34232 4.12603 27.7407
rtibia 39.2893
rfoot -23.233 -21.7245
rtoes 4.64412
lfemur -2.16629 1.82175 -17.4717
ltibia 32.2884
lfoot -13.6989 -10.2487
ltoes -11.4638
20
root -0.112275 17.2403 6.31207 171.243 -8.58281 -178.324
lowerback 3.78551 -3.12483 -3.1197
upperback 5.14753 -4.54359 -0.241236
thorax 3.40933 -2.51611 1.50815
lowerneck -7.62827 -6.10451 -3.32159
upperneck -1.64049 -7.68992 9.32522
head 1.35715 -3.53149 3.31165
rclavicle 6.75868e-015 3.97569e-015
rhumerus 71.9856 22.8275 -0.448942
rradius 39.5601
rwrist -56.4317
rhand -43.5938 -6.24731
rfingers 7.12502
rthumb -16.4301 -35.5715
lclavicle 6.75868e-015 3.97569e-015
lhumerus 74.4509 -21.8665 -23.6891
lradius 29.5181
lwrist 19.9161
lhand -41.1897 12.5984
lfingers 7.12502
lthumb -14.1145 42.099
rfemur -3.48447 3.5466 27.561
rtibia 39.3549
rfoot -23.066 -21.2121
rtoes 4.34947
lfemur -2.2609 1.67402 -17.5281
ltibia 32.3638
lfoot -13.7259 -10.0684
ltoes -11.6373
21
root -0.106383 17.2383 6.32564 171.235 -8.56766 -178.343
lowerback 4.02681 -3.10502 -3.11892
upperback 5.14988 -4.53099 -0.259474
thorax 3.27424 -2.51059 1.50532
lowerneck -7.55095 -6.13588 -3.34332
upperneck -1.80872 -7.71286 9.40881
head 1.29573 -3.54351 3.34668
rclavicle -4.26393e-014 -3.97569e-015
rhumerus 71.8406 22.6576 -1.12785
rradius 39.6435
rwrist -56.1324
rhand -43.4915 -6.20718
rfingers 7.12502
rthumb -16.3317 -35.5395
lclavicle -4.26393e-014 -3.97569e-015
lhumerus 73.9276 -21.7189 -21.8352
lradius 29.4131
lwrist 18.1231
lhand -41.3786 12.511
lfingers 7.12502
lthumb -14.2964 41.9989
rfemur -3.63413 2.90292 27.3694
rtibia 39.4452
rfoot -22.8788 -20.6647
rtoes 4.00043
lfemur -2.36107 1.50207 -17.5913
ltibia 32.4684
lfoot -13.7787 -9.81931
ltoes -12.0623
22
root -0.100603 17.2353 6.34147 171.224 -8.54845 -178.342
lowerback 4.31232 -3.09251 -3.10216
upperback 5.13619 -4.52913 -0.261484
thorax 3.09851 -2.50922 1.51405
lowerneck -7.46317 -6.15997 -3.35403
upperneck -1.96987 -7.72932 9.43322
head 1.23064 -3.55489 3.35996
rclavicle 6.04802e-014 -2.3059e-014
rhumerus 71.7208 22.5245 -1.75437
rradius 39.732
rwrist -55.8278
rhand -43.4181 -6.14587
rfingers 7.12502
rthumb -16.2609 -35.484
lclavicle 6.04802e-014 -2.3059e-014
lhumerus 73.3667 -21.5944 -19.9523
lradius 29.3364
lwrist 16.3496
lhand -41.5122 12.5462
lfingers 7.12502
lthumb -14.4252 42.0249
rfemur -3.81018 2.24116 27.1889
rtibia 39.5646
rfoot -22.7203 -20.0722
rtoes 3.67046
lfemur -2.48904 1.25761 -17.6472
ltibia 32.6112
lfoot -13.8421 -9.52145
ltoes -12.3607
